{"title":"Larry.Crowne.2011.PPVRIP.IFLIX","uid":6652210,"size":1260791472,"categoryP":"video","categoryS":"movies","magnet":"?xt=urn:btih:f25a7cc34eb7e9276dd0acf94166be788bf553ab&amp;dn=Larry.Crowne.2011.PPVRIP.IFLIX&amp;tr=udp%3A%2F%2Ftracker.openbittorrent.com%3A80&amp;tr=udp%3A%2F%2Fopen.demonii.com%3A1337&amp;tr=udp%3A%2F%2Ftracker.coppersurfer.tk%3A6969&amp;tr=udp%3A%2F%2Fexodus.desync.com%3A6969","seeders":0,"leechers":0,"uploader":"TvTeam","files":5,"time":1315201805,"description":". \n  &lt;a href=&quot;\nhttp://www.torrenting.com/&quot; rel=&quot;nofollow&quot; target=&quot;_NEW&quot;&gt;\nhttp://www.torrenting.com/&lt;/a&gt;        :     Greatest Movie Tracker on The Net!!!\n &lt;a href=&quot;\nhttp://www.Torrenting.com&quot; rel=&quot;nofollow&quot; target=&quot;_NEW&quot;&gt;\nhttp://www.Torrenting.com&lt;/a&gt;          :     Once &amp; For all ;)\n\n\n               www . Torrenting . Com \n\n(((((((((((((= Enjoy No RAR releases =))))))))))))))))))))\n\n\n...................................NFO:....................................\n\n.    Larry Crowne 2011 PPVRIP IFLIX\n\n\nLanguage : English\nFormat : AVI\nFormat/Info : Audio Video Interleave\nFormat profile : OpenDML\nFile size : 1.17 GiB\nDuration : 1h 38mn\nOverall bit rate : 1 696 Kbps\n\nVideo\nID : 0\nFormat : MPEG-4 Visual\nFormat profile : Simple@L3\nFormat settings, BVOP : No\nFormat settings, QPel : No\nFormat settings, GMC : No warppoints\nFormat settings, Matrix : Default (H.263)\nCodec ID : XVID\nCodec ID/Hint : XviD\nDuration : 1h 38mn\nBit rate : 1 550 Kbps\nWidth : 720 pixels\nHeight : 480 pixels\nDisplay aspect ratio : 1.500\nFrame rate : 29.970 fps\nOriginal frame rate : 29.000 fps\nStandard : NTSC\nResolution : 24 bits\nColorimetry : 4:2:0\nScan type : Progressive\nBits/(Pixel*Frame) : 0.150\nStream size : 1.07 GiB (91%)\nWriting library : XviD 1.2.1 (UTC 2008-12-04)\n\nAudio\nID : 1\nFormat : MPEG Audio\nFormat version : Version 1\nFormat profile : Layer 3\nFormat_Settings_Mode : Joint stereo / MS Stereo\nCodec ID : 55\nCodec ID/Hint : MP3\nDuration : 1h 38mn\nBit rate mode : Constant\nBit rate : 128 Kbps\nChannel(s) : 2 channels\nSampling rate : 44.1 KHz\nResolution : 16 bits\nStream size : 90.2 MiB (8%)\nAlignment : Aligned on interleaves\nInterleave, duration : 26 ms (0.78 video frame)\nWriting library : LAME3.98.2\n\nLink: http://www.imdb.com/title/tt1583420/\n\nPlot:  Until he was downsized, affable, amiable Larry Crowne (Hanks) was a superstar team leader at the big-box company where he's worked since his time in the Navy. Underwater on his mortgage and unclear on what to do with his suddenly free days, Larry heads to his local college to start over. There he becomes part of a colorful community of outcasts, also-rans and the overlooked all trying to find a better future for themselves...often moving around town in a herd of scooters.\n\nRelease notes...\n\nAnother quality release from IFLIX\nMore to come very soon!\n\nVideo source: Ours\nAudio source: Ours\n\nGreetings to all other groups out there. You all do awesome work and we greatly appreciate it.\nIFLIX \n\n[color=blue][b]Screenshots[/b][/color]\n\n[imgw]http://bitpic.bitboxes.co.uk/images/88859593520.png[/imgw]\n\n[imgw]http://bitpic.bitboxes.co.uk/images/11062845975.png[/imgw]\n\n[imgw]http://bitpic.bitboxes.co.uk/images/36588092731.png[/imgw]\n\n[color=Darkblue][b]eNJOY[/b][/color]","torrent":{"xt":"urn:btih:f25a7cc34eb7e9276dd0acf94166be788bf553ab","amp;dn":"Larry.Crowne.2011.PPVRIP.IFLIX","amp;tr":["udp%3A%2F%2Ftracker.openbittorrent.com%3A80","udp%3A%2F%2Fopen.demonii.com%3A1337","udp%3A%2F%2Ftracker.coppersurfer.tk%3A6969","udp%3A%2F%2Fexodus.desync.com%3A6969"],"infoHash":"f25a7cc34eb7e9276dd0acf94166be788bf553ab","infoHashBuffer":{"type":"Buffer","data":[242,90,124,195,78,183,233,39,109,208,172,249,65,102,190,120,139,245,83,171]},"announce":[],"urlList":[]}}